<?xml version="1.0" encoding="UTF-8" standalone="no"?>
<!DOCTYPE svg PUBLIC "-//W3C//DTD SVG 20010904//EN"
              "http://www.w3.org/TR/2001/REC-SVG-20010904/DTD/svg10.dtd">

<svg xmlns="http://www.w3.org/2000/svg"
     width="7.11111in" height="7.11111in"
     viewBox="0 0 512 512">
  <path id="Selection"
        fill="white" stroke="white" stroke-width="1"
        d="M 242.00,50.42
           C 242.00,50.42 232.00,51.28 232.00,51.28
             215.28,53.30 198.81,57.25 183.00,63.05
             135.45,80.49 93.45,118.49 71.26,164.00
             42.82,222.34 42.55,293.03 72.26,351.00
             87.33,380.40 108.44,404.56 135.00,424.12
             151.53,436.29 170.55,445.85 190.00,452.33
             206.98,457.99 230.12,462.79 248.00,463.00
             284.59,463.42 320.44,457.29 353.00,439.69
             382.71,423.63 405.90,403.53 425.57,376.00
             453.15,337.42 463.54,294.81 463.00,248.00
             463.00,248.00 462.09,238.00 462.09,238.00
             458.08,183.16 430.99,132.66 389.00,97.44
             368.35,80.11 345.55,68.00 320.00,59.67
             298.77,52.75 264.13,47.73 242.00,50.42 Z
           M 245.00,91.28
           C 263.65,89.55 286.03,92.75 304.00,97.86
             321.91,102.96 341.18,112.93 356.00,124.13
             371.10,135.54 384.96,150.11 395.31,166.00
             435.37,227.53 429.78,308.02 382.56,364.00
             367.28,382.12 349.08,395.29 328.00,405.75
             303.14,418.10 277.52,422.32 250.00,422.00
             238.60,421.86 221.05,418.57 210.00,415.42
             114.22,388.09 64.86,280.48 104.86,190.00
             123.81,147.13 158.77,115.12 203.00,99.69
             218.22,94.39 229.52,93.51 245.00,91.28 Z
           M 221.00,259.00
           C 221.00,259.00 175.00,305.00 175.00,305.00
             175.00,305.00 162.00,318.00 162.00,318.00
             160.38,319.63 156.89,322.91 156.17,325.00
             154.85,328.82 159.61,332.59 162.00,335.00
             162.00,335.00 181.00,354.00 181.00,354.00
             182.93,355.93 187.65,361.02 190.00,361.83
             194.69,363.45 204.69,351.31 208.00,348.00
             208.00,348.00 240.00,316.00 240.00,316.00
             245.44,310.56 253.73,302.97 258.00,297.00
             258.00,297.00 304.00,343.00 304.00,343.00
             304.00,343.00 317.00,356.00 317.00,356.00
             318.63,357.62 321.91,361.11 324.00,361.83
             327.82,363.15 331.59,358.39 334.00,356.00
             334.00,356.00 353.00,337.00 353.00,337.00
             354.93,335.07 360.02,330.35 360.83,328.00
             362.45,323.31 350.31,313.31 347.00,310.00
             347.00,310.00 315.00,278.00 315.00,278.00
             309.56,272.56 301.97,264.27 296.00,260.00
             296.00,260.00 342.00,214.00 342.00,214.00
             342.00,214.00 355.00,201.00 355.00,201.00
             356.62,199.37 360.11,196.09 360.83,194.00
             362.15,190.18 357.39,186.41 355.00,184.00
             355.00,184.00 336.00,165.00 336.00,165.00
             334.07,163.07 329.35,157.98 327.00,157.17
             322.31,155.55 312.31,167.69 309.00,171.00
             309.00,171.00 277.00,203.00 277.00,203.00
             271.56,208.44 263.27,216.03 259.00,222.00
             259.00,222.00 213.00,176.00 213.00,176.00
             213.00,176.00 200.00,163.00 200.00,163.00
             198.37,161.38 195.09,157.89 193.00,157.17
             189.18,155.85 185.41,160.61 183.00,163.00
             183.00,163.00 164.00,182.00 164.00,182.00
             162.07,183.93 156.98,188.65 156.17,191.00
             154.55,195.69 166.69,205.69 170.00,209.00
             170.00,209.00 202.00,241.00 202.00,241.00
             207.44,246.44 215.03,254.73 221.00,259.00 Z" />
</svg>
