<?xml version="1.0" encoding="UTF-8" standalone="no"?>
<!DOCTYPE svg PUBLIC "-//W3C//DTD SVG 20010904//EN"
              "http://www.w3.org/TR/2001/REC-SVG-20010904/DTD/svg10.dtd">

<svg xmlns="http://www.w3.org/2000/svg"
     width="20.5834mm" height="20.5834mm"
     viewBox="0 0 250 250">
  <path id="Selection"
        fill="white" stroke="white" stroke-width="1"
        d="M 109.00,0.21
           C 65.22,7.59 31.54,30.77 11.76,71.00
             5.28,84.17 0.02,102.28 0.00,117.00
             -0.03,137.30 -0.36,147.18 6.69,167.00
             20.46,205.69 53.12,236.15 93.00,246.37
             99.61,248.06 108.22,249.92 115.00,250.00
             115.00,250.00 133.00,250.00 133.00,250.00
             149.56,249.97 169.52,243.54 184.00,235.69
             199.43,227.33 213.58,215.96 224.35,202.00
             259.12,156.92 259.11,91.69 223.58,47.01
             210.29,30.31 191.77,16.61 172.00,8.60
             160.26,3.85 145.70,0.02 133.00,0.21
             133.00,0.21 109.00,0.21 109.00,0.21 Z
           M 172.00,49.00
           C 172.00,49.00 172.00,74.00 172.00,74.00
             171.98,83.93 167.61,90.49 162.86,99.00
             162.86,99.00 146.00,130.00 146.00,130.00
             146.00,130.00 172.00,131.00 172.00,131.00
             172.00,131.00 172.00,170.00 172.00,170.00
             172.00,170.00 135.00,170.00 135.00,170.00
             132.35,170.01 129.49,169.83 127.02,170.93
             119.36,174.34 112.81,195.01 107.61,199.11
             105.28,200.95 102.81,200.95 100.00,201.00
             100.00,201.00 78.00,201.00 78.00,201.00
             78.00,201.00 78.00,174.00 78.00,174.00
             78.15,163.56 90.52,144.63 95.86,135.00
             97.22,132.55 102.59,123.53 102.76,121.34
             103.07,117.36 96.53,118.00 94.00,118.00
             94.00,118.00 78.00,118.00 78.00,118.00
             78.00,118.00 78.00,80.00 78.00,80.00
             78.00,80.00 115.00,80.00 115.00,80.00
             117.65,79.99 120.51,80.17 122.98,79.07
             130.64,75.66 137.19,54.99 142.39,50.89
             144.72,49.05 147.19,49.05 150.00,49.00
             150.00,49.00 172.00,49.00 172.00,49.00 Z" />
</svg>
