<?xml version="1.0" encoding="UTF-8" standalone="no"?>
<!DOCTYPE svg PUBLIC "-//W3C//DTD SVG 20010904//EN"
              "http://www.w3.org/TR/2001/REC-SVG-20010904/DTD/svg10.dtd">

<svg xmlns="http://www.w3.org/2000/svg"
     width="20.5834mm" height="20.5834mm"
     viewBox="0 0 250 250">
  <path id="Selection"
        fill="white" stroke="white" stroke-width="1"
        d="M 94.14,218.00
           C 80.70,219.08 66.13,220.50 56.34,208.96
             51.73,203.53 53.48,201.09 45.84,191.01
             40.72,184.25 37.97,185.22 34.00,178.00
             38.68,178.00 42.52,177.72 46.83,179.98
             57.68,185.69 59.38,196.90 70.00,201.95
             75.35,204.49 90.13,204.88 94.27,200.44
             95.93,198.66 96.23,195.32 97.14,193.00
             98.54,189.44 101.09,186.32 103.00,183.00
             85.86,182.84 65.82,174.39 55.90,160.00
             49.56,150.79 46.27,136.11 46.01,125.00
             45.86,118.28 47.34,108.08 50.17,102.00
             50.17,102.00 57.94,89.00 57.94,89.00
             58.60,86.46 56.90,81.85 56.44,79.00
             55.60,73.79 56.66,60.29 60.70,56.78
             63.18,54.35 68.20,55.94 71.00,56.78
             71.00,56.78 94.00,67.55 94.00,67.55
             97.84,68.31 104.12,66.30 108.00,65.51
             111.83,64.74 120.97,64.00 125.00,64.00
             129.70,63.99 138.50,64.60 143.00,65.51
             147.32,66.39 153.59,68.50 157.91,67.44
             161.03,66.68 178.71,54.90 186.96,55.32
             191.28,55.53 192.08,59.54 193.14,63.00
             194.67,68.02 195.40,72.76 194.71,78.00
             194.22,81.78 192.03,86.61 193.41,90.00
             193.41,90.00 200.33,101.00 200.33,101.00
             202.77,105.85 204.31,113.56 204.83,119.00
             205.35,124.35 204.71,126.93 204.16,132.00
             203.13,141.71 201.19,150.65 195.76,159.00
             186.03,173.95 165.48,182.84 148.00,183.00
             149.96,186.73 152.87,189.99 154.21,194.00
             158.23,205.95 156.98,224.15 157.21,237.00
             157.00,238.81 156.92,242.25 157.21,243.88
             159.64,250.98 168.63,246.34 173.00,244.68
             182.58,241.04 193.98,234.75 202.00,228.40
             228.10,207.73 249.84,173.12 250.00,139.00
             250.07,123.80 250.60,109.91 246.58,95.00
             236.63,58.09 208.96,27.55 174.00,12.57
             159.19,6.22 139.08,2.82 123.00,3.00
             115.61,3.09 108.21,4.23 101.00,5.72
             92.17,7.53 87.65,8.38 79.00,11.74
             44.12,25.32 17.76,54.78 6.07,90.00
             3.49,97.76 0.10,114.96 0.00,123.00
             -0.45,161.80 11.31,192.38 39.20,219.79
             49.62,230.03 63.31,239.10 77.00,244.32
             81.25,245.94 88.21,249.84 92.30,246.18
             95.45,243.35 94.70,238.68 94.14,235.00
             94.14,235.00 94.14,218.00 94.14,218.00 Z" />
</svg>
