<?xml version="1.0" encoding="UTF-8" standalone="no"?>
<!DOCTYPE svg PUBLIC "-//W3C//DTD SVG 20010904//EN"
              "http://www.w3.org/TR/2001/REC-SVG-20010904/DTD/svg10.dtd">

<svg xmlns="http://www.w3.org/2000/svg"
     width="20.5834mm" height="20.5834mm"
     viewBox="0 0 250 250">
  <path id="Selection"
        fill="white" stroke="white" stroke-width="1"
        d="M 119.00,2.42
           C 107.40,4.07 98.60,4.35 87.00,8.03
             55.46,18.02 28.74,41.28 14.26,71.00
             -8.43,117.55 0.70,174.90 37.04,211.99
             49.08,224.27 66.85,235.03 83.00,240.95
             93.53,244.81 108.79,247.87 120.00,248.00
             133.82,248.16 147.75,247.02 161.00,242.81
             213.59,226.07 245.67,181.52 247.96,127.00
             248.21,121.08 247.45,120.01 247.09,115.00
             243.43,64.90 210.49,24.16 163.00,8.33
             151.38,4.46 131.07,0.95 119.00,2.42 Z
           M 174.00,160.00
           C 174.00,170.37 173.28,179.85 163.00,185.59
             153.96,190.64 141.16,189.00 131.00,189.00
             131.00,189.00 65.00,189.00 65.00,189.00
             56.00,188.99 46.98,187.28 42.99,178.00
             40.10,171.26 41.00,154.91 41.00,147.00
             41.00,147.00 41.00,84.00 41.00,84.00
             41.01,79.96 40.64,75.37 44.23,72.60
             47.01,70.45 52.55,71.00 56.00,71.00
             56.00,71.00 82.00,71.00 82.00,71.00
             82.00,71.00 165.00,71.00 165.00,71.00
             183.63,71.00 199.12,69.52 213.96,83.29
             230.77,98.89 231.95,130.84 214.91,146.70
             203.99,156.86 188.48,159.99 174.00,160.00 Z
           M 175.00,93.00
           C 175.00,93.00 175.00,138.00 175.00,138.00
             183.17,138.01 188.79,139.64 195.98,134.36
             207.62,125.84 208.53,104.43 195.98,96.26
             190.78,92.87 181.13,93.00 175.00,93.00 Z
           M 86.00,98.48
           C 82.62,99.22 79.95,99.85 77.02,101.85
             72.65,104.83 69.60,109.71 69.10,115.00
             67.70,130.08 81.64,142.44 91.91,151.54
             95.40,154.63 104.64,165.19 109.00,164.26
             111.44,163.73 120.52,155.07 123.00,152.83
             128.97,147.43 143.22,133.21 145.87,126.00
             147.00,122.93 147.14,119.25 146.96,116.00
             146.69,111.12 144.63,106.62 140.90,103.39
             134.37,97.73 125.71,96.84 118.00,100.31
             115.59,101.40 110.02,105.04 108.00,105.04
             105.89,105.04 102.15,102.34 100.00,101.33
             95.43,99.16 91.05,98.00 86.00,98.48 Z" />
</svg>
