<?xml version="1.0" encoding="UTF-8" standalone="no"?>
<!DOCTYPE svg PUBLIC "-//W3C//DTD SVG 20010904//EN"
              "http://www.w3.org/TR/2001/REC-SVG-20010904/DTD/svg10.dtd">

<svg xmlns="http://www.w3.org/2000/svg"
     width="20.5834mm" height="20.5834mm"
     viewBox="0 0 250 250">
  <path id="Selection"
        fill="white" stroke="white" stroke-width="1"
        d="M 113.00,0.21
           C 102.62,1.93 95.14,2.98 85.00,6.35
             54.85,16.41 27.00,40.20 13.32,69.00
             7.31,81.64 1.17,100.98 1.00,115.00
             1.00,115.00 1.00,133.00 1.00,133.00
             1.04,160.97 16.72,193.28 36.04,212.99
             40.35,217.38 47.94,223.41 53.00,227.12
             62.70,234.23 73.62,239.51 85.00,243.33
             95.59,246.89 108.82,249.87 120.00,250.00
             142.28,250.26 160.80,247.20 181.00,237.24
             194.39,230.64 207.82,221.11 217.83,210.00
             234.53,191.45 249.70,161.42 250.00,136.00
             250.00,136.00 250.00,116.00 250.00,116.00
             249.96,90.21 236.40,61.19 219.71,42.00
             207.77,28.27 193.34,18.49 177.00,10.78
             163.65,4.48 144.77,0.02 130.00,0.21
             130.00,0.21 113.00,0.21 113.00,0.21 Z
           M 124.00,48.66
           C 129.46,49.47 137.07,54.68 142.00,57.60
             142.00,57.60 173.00,75.58 173.00,75.58
             175.87,77.24 187.41,82.67 187.41,85.97
             187.41,88.88 176.60,93.92 174.00,95.24
             174.00,95.24 140.00,113.24 140.00,113.24
             137.20,114.67 127.29,120.17 125.00,120.37
             120.93,120.75 112.74,115.33 109.00,113.31
             109.00,113.31 75.00,95.26 75.00,95.26
             71.94,93.68 60.51,89.39 61.73,85.12
             62.52,82.35 74.07,76.38 77.00,74.72
             77.00,74.72 108.00,56.85 108.00,56.85
             112.86,54.07 118.62,49.80 124.00,48.66 Z
           M 116.00,200.00
           C 110.10,199.19 106.10,196.06 101.00,193.15
             101.00,193.15 73.00,177.00 73.00,177.00
             59.84,169.43 60.02,170.96 60.00,162.00
             60.00,162.00 60.00,105.00 60.00,105.00
             68.03,106.10 85.81,117.50 94.00,121.74
             94.00,121.74 113.69,132.63 113.69,132.63
             116.42,135.24 115.99,138.54 116.00,142.00
             116.00,142.00 116.00,200.00 116.00,200.00 Z
           M 189.00,105.00
           C 189.00,105.00 189.00,162.00 189.00,162.00
             188.98,170.77 188.82,169.63 178.00,175.99
             178.00,175.99 150.00,192.15 150.00,192.15
             144.61,195.24 139.25,199.14 133.00,200.00
             133.00,200.00 133.00,142.00 133.00,142.00
             133.01,138.62 132.53,135.40 135.31,132.96
             135.31,132.96 153.00,123.14 153.00,123.14
             160.85,118.79 181.48,106.41 189.00,105.00 Z" />
</svg>
