<?xml version="1.0" encoding="UTF-8" standalone="no"?>
<!DOCTYPE svg PUBLIC "-//W3C//DTD SVG 20010904//EN"
              "http://www.w3.org/TR/2001/REC-SVG-20010904/DTD/svg10.dtd">

<svg xmlns="http://www.w3.org/2000/svg"
     width="20.5834mm" height="20.5834mm"
     viewBox="0 0 250 250">
  <path id="Selection"
        fill="white" stroke="white" stroke-width="1"
        d="M 109.00,0.21
           C 62.18,8.09 24.59,35.93 7.58,81.00
             3.32,92.27 0.02,104.90 0.00,117.00
             -0.03,134.91 -0.58,144.30 5.03,162.00
             16.86,199.32 44.38,228.60 81.00,242.42
             90.90,246.16 104.40,249.87 115.00,250.00
             115.00,250.00 133.00,250.00 133.00,250.00
             149.11,249.97 169.94,243.41 184.00,235.69
             198.47,227.75 203.35,223.65 215.00,212.00
             218.81,208.19 221.81,205.35 225.10,201.00
             237.57,184.54 249.75,155.88 250.00,135.00
             250.00,135.00 250.00,117.00 250.00,117.00
             249.95,82.61 228.95,47.73 203.00,26.46
             195.07,19.96 179.72,11.59 170.00,7.95
             158.20,3.54 145.69,0.02 133.00,0.21
             133.00,0.21 109.00,0.21 109.00,0.21 Z
           M 190.00,71.00
           C 187.72,78.98 185.02,80.76 179.00,86.00
             179.00,86.00 193.00,83.00 193.00,83.00
             188.57,90.58 183.24,93.66 181.59,98.00
             181.59,98.00 179.20,115.00 179.20,115.00
             177.24,125.22 172.93,136.25 167.30,145.00
             143.17,182.53 94.82,192.44 57.00,170.00
             57.00,170.00 79.00,166.96 79.00,166.96
             79.00,166.96 98.00,158.00 98.00,158.00
             84.51,153.54 77.38,152.71 71.00,138.00
             71.00,138.00 84.00,137.00 84.00,137.00
             69.63,130.66 61.80,126.31 61.00,109.00
             61.00,109.00 74.00,112.00 74.00,112.00
             61.00,101.23 58.06,89.81 64.00,74.00
             64.00,74.00 87.00,92.38 87.00,92.38
             100.47,100.68 109.28,101.36 124.00,104.00
             124.00,98.84 123.64,92.97 124.90,88.00
             128.68,73.17 145.85,65.20 160.00,69.44
             168.58,72.01 170.25,76.22 175.00,76.40
             178.61,76.54 186.43,72.54 190.00,71.00 Z" />
</svg>
